<svg xmlns="http://www.w3.org/2000/svg" xmlns:xlink="http://www.w3.org/1999/xlink" version="1.1" width="300" height="90" viewBox="0 0 300 90" xml:space="preserve">
<desc>Created with Fabric.js 3.5.0</desc>
<defs>
</defs>
<rect x="0" y="0" width="100%" height="100%" fill="#ffffff"/>
<g transform="matrix(1 0 0 1 143.9463 40.68)" style="" id="58435">
		
<path xml:space="preserve" font-family="Antic Didone" font-size="72" font-weight="normal" style="stroke: none; stroke-width: 0; stroke-dasharray: none; stroke-linecap: butt; stroke-dashoffset: 0; stroke-linejoin: miter; stroke-miterlimit: 4; is-custom-font: none; font-file-url: https://cdn.pixelied.com/user-assets/fonts/f9dcbca2-3c70-47b6-a73e-64672bf11c84.otf; fill: rgb(94,34,149); fill-rule: nonzero; opacity: 1; white-space: pre;" d="M-98.86 22.62L-112.68 22.69L-112.61 21.68L-107.42 21.03Q-106.70 20.96-106.27 20.10L-106.27 20.10L-94.10-1.86L-107.86-25.33L-108.22-25.84Q-108.29-26.13-108.86-26.27L-108.86-26.27L-112.10-26.63L-112.18-27.71L-98.64-27.78Q-98.64-27.71-98.57-26.70L-98.57-26.70L-103.25-26.27L-91.08-4.74L-80.21-25.19Q-80.14-25.41-80.32-25.69Q-80.50-25.98-80.78-26.05L-80.78-26.05L-86.90-26.63L-86.98-27.71L-73.87-27.78Q-73.87-27.71-73.80-26.70L-73.80-26.70L-77.62-26.34L-90.43-3.52L-75.89 21.25L-71.50 21.54Q-71.50 21.61-71.57 22.62L-71.57 22.62L-85.97 22.69Q-85.97 22.04-85.90 21.68L-85.90 21.68L-82.44 21.18Q-82.01 21.11-81.72 20.82Q-81.43 20.53-81.65 20.24L-81.65 20.24L-93.38-0.57L-104.90 21.11L-98.78 21.54Q-98.78 21.61-98.86 22.62L-98.86 22.62ZM-63.65-26.27L-67.46-26.70L-67.39-27.78L-36.58-27.78L-36.65-27.57L-35.71-17.41L-37.15-16.84L-38.30-26.34L-57.89-26.34L-57.89-3.09L-40.68-3.09Q-40.32-3.01-40.03-3.27Q-39.74-3.52-39.74-3.95L-39.74-3.95L-39.46-8.92L-38.30-9.06L-38.30 3.25Q-38.38 3.25-39.38 3.32L-39.38 3.32L-39.67-1.65L-57.89-1.65L-57.89 21.18L-36.36 21.18L-34.99 9.66L-33.62 10.02L-34.70 22.62L-52.99 22.62L-67.46 22.69L-67.39 21.68L-63.65 21.18Q-62.93 21.11-62.78 20.24L-62.78 20.24L-62.78-25.33Q-62.93-26.20-63.65-26.27L-63.65-26.27ZM-25.49-26.27L-29.30-26.70L-29.23-27.78L-19.37-27.78L8.64 20.60L8.28-25.26Q7.99-25.98 7.49-26.05L7.49-26.05L0.86-26.63Q0.79-27.06 0.79-27.71L0.79-27.71L14.47-27.78Q14.47-27.71 14.54-26.70L14.54-26.70L9.94-26.20L9.94 22.62L4.68 22.62L-23.33-25.77L-22.97 21.11L-14.76 21.54Q-14.76 21.61-14.83 22.62L-14.83 22.62L-29.30 22.69L-29.23 21.68L-25.49 21.18Q-24.77 21.11-24.62 20.24L-24.62 20.24L-24.62-25.33Q-24.77-26.20-25.49-26.27L-25.49-26.27ZM19.87-2.44L19.87-2.44Q19.87-14.32 25.96-21.37Q32.04-28.43 41.11-28.43L41.11-28.43Q62.35-28.43 62.35-2.44L62.35-2.44Q62.35 9.51 56.30 16.39Q50.26 23.27 41.11 23.27L41.11 23.27Q19.87 23.27 19.87-2.44ZM24.77-2.58L24.77-2.58Q24.77 21.83 41.11 21.83L41.11 21.83Q48.17 21.83 52.81 15.35Q57.46 8.87 57.46-2.58L57.46-2.58Q57.46-26.99 41.11-26.99L41.11-26.99Q34.13-26.99 29.45-20.44Q24.77-13.89 24.77-2.58ZM70.85-26.27L67.03-26.70L67.10-27.78L76.97-27.78L104.98 20.60L104.62-25.26Q104.33-25.98 103.82-26.05L103.82-26.05L97.20-26.63Q97.13-27.06 97.13-27.71L97.13-27.71L110.81-27.78Q110.81-27.71 110.88-26.70L110.88-26.70L106.27-26.20L106.27 22.62L101.02 22.62L73.01-25.77L73.37 21.11L81.58 21.54Q81.58 21.61 81.50 22.62L81.50 22.62L67.03 22.69L67.10 21.68L70.85 21.18Q71.57 21.11 71.71 20.24L71.71 20.24L71.71-25.33Q71.57-26.20 70.85-26.27L70.85-26.27Z"/></g>
</svg>